<svg id="v3_bw" xmlns="http://www.w3.org/2000/svg" viewBox="0 0 532.76 836.64"><title>VE_icon_v3_bw</title><path d="M511.25,644.84c-47.36,0-72.79-25.41-85.8-46.77a119.8,119.8,0,0,1-16.15-45.35l44.73-5,0-.14a76.72,76.72,0,0,0,10.56,28.15c10.32,16.2,25.6,24.08,46.69,24.08h.26c21.81-.07,37.52-8.39,48-25.44a76.9,76.9,0,0,0,10-26.77l44.69,5.22A119.7,119.7,0,0,1,597.86,598c-13.11,21.29-38.71,46.69-86.2,46.84Z" transform="translate(-245.42 -90.18)"/><rect x="489.98" y="728.08" width="45" height="182.65" transform="translate(-251.78 -86.17) rotate(-0.45)" fill="#fff"/><rect x="174.85" y="791.64" width="185.85" height="45" fill="#fff"/><path d="M266.24,449.12" transform="translate(-245.42 -90.18)" fill="#fff" stroke="#333" stroke-miterlimit="10" stroke-width="30"/><path d="M737.33,464.18v103c0,124.35-101.17,225.52-225.53,225.52S286.28,691.57,286.28,567.22v-103H245.42V569.91c0,146.88,119.5,266.38,266.38,266.38s266.38-119.5,266.38-266.38V464.18Z" transform="translate(-245.42 -90.18)" fill="#fff"/><path d="M362.14,422V282.68c0-81.33,66.17-147.5,147.5-147.5H514c81.33,0,147.5,66.17,147.5,147.5V422h45V282.68c0-106.14-86.35-192.5-192.5-192.5h-4.32c-106.14,0-192.5,86.36-192.5,192.5V422Z" transform="translate(-245.42 -90.18)" fill="#fff"/><path d="M661.46,464.09v88.83c0,81.34-66.17,147.5-147.5,147.5h-4.32c-81.33,0-147.5-66.16-147.5-147.5V464.09h-45v88.83c0,106.15,86.36,192.5,192.5,192.5H514c106.15,0,192.5-86.35,192.5-192.5V464.09Z" transform="translate(-245.42 -90.18)" fill="#fff"/><circle cx="267.77" cy="128.61" r="101.38"/></svg>