<svg xmlns="http://www.w3.org/2000/svg" viewBox="0 0 532.76 836.64"><title>VE_icon_v2_black</title><g id="v2_b01"><rect x="94.22" y="22.5" width="344.32" height="610.24" rx="170" fill="none" stroke="#000" stroke-miterlimit="10" stroke-width="45"/></g><g id="v2_b02"><circle cx="267.77" cy="128.61" r="101.38"/><path d="M431.66,550.24s8,72.32,79.93,72.1,80.29-72.1,80.29-72.1" transform="translate(-245.42 -90.18)" fill="none" stroke="#000" stroke-miterlimit="10" stroke-width="45"/><line x1="266.35" y1="637.9" x2="267.77" y2="820.55" fill="none" stroke="#000" stroke-miterlimit="10" stroke-width="45"/><line x1="174.85" y1="814.14" x2="360.7" y2="814.14" fill="none" stroke="#000" stroke-miterlimit="10" stroke-width="45"/></g><g id="v2_b03"><path d="M266.24,449.12" transform="translate(-245.42 -90.18)" fill="none" stroke="#333" stroke-miterlimit="10" stroke-width="30"/><path d="M737.33,464.18v103c0,124.35-101.17,225.52-225.53,225.52S286.28,691.57,286.28,567.22v-103H245.42V569.91c0,146.88,119.5,266.38,266.38,266.38s266.38-119.5,266.38-266.38V464.18Z" transform="translate(-245.42 -90.18)"/></g></svg>