<svg xmlns="http://www.w3.org/2000/svg" viewBox="0 0 818.61 784.62"><title>VE_icon_v1_black</title><g id="v1_black"><path d="M892.65,497.88s-18.38-72.47-93.91-73.49S679.57,508.26,685.43,583.63c7.15,91.87,87.14,222.19,199.42,168.6" transform="translate(-91 -102.85)" fill="none" stroke="#000" stroke-miterlimit="10" stroke-width="35"/><path d="M845.69,562.7s-10.67-26-47.46-20.14c-42.88,6.87-59.09,90.06,29.66,124.26" transform="translate(-91 -102.85)" fill="none" stroke="#000" stroke-miterlimit="10" stroke-width="35"/></g><g id="v1_blackwave"><line x1="599.1" y1="510.97" y2="510.97" fill="none" stroke="#000" stroke-miterlimit="10" stroke-width="35"/><path d="M684.91,567.29c-93.39-2-21.85,218.17-103.59,216.55-100.76-2,3.06-415.6-128.62-415.6C304,368.24,391.45,871,321,870s-30.63-352.68-90.85-352.68-18.49,206.89-73.63,203.24C108.7,717.35,124,604.26,108.7,551" transform="translate(-91 -102.85)" fill="none" stroke="#000" stroke-miterlimit="10" stroke-width="35"/></g><g id="v1_blackeye"><circle cx="362.04" cy="325.19" r="74.95"/></g><g id="v1_sound"><path d="M311.83,450.83s124.5-207.62,289.9,0" transform="translate(-91 -102.85)" fill="none" stroke="#000" stroke-miterlimit="10" stroke-width="35"/><path d="M250.58,362.49S431,109.87,663,362.49" transform="translate(-91 -102.85)" fill="none" stroke="#000" stroke-miterlimit="10" stroke-width="35"/><path d="M164.63,279.07s259.73-357.13,584.29,0" transform="translate(-91 -102.85)" fill="none" stroke="#000" stroke-miterlimit="10" stroke-width="35"/></g></svg>