<svg id="v1_combined_white" xmlns="http://www.w3.org/2000/svg" viewBox="0 0 818.61 784.62"><title>VE_icon_v1_white</title><path d="M833.11,782.22c-21.49,0-42.47-5.73-62.3-17.19C709.75,729.75,672.87,647.75,668,585c-4.07-52.41,13.35-106.24,45.47-140.49,23.48-25,53.1-38,85.52-37.6,36.43.49,67.18,15.69,88.92,44a127.41,127.41,0,0,1,21.72,42.73l-33.92,8.6,17-4.3-16.94,4.39c-.65-2.44-16.43-59.56-77.21-60.38-22.66-.31-42.71,8.62-59.52,26.54-25.22,26.89-39.39,71.57-36.1,113.84,4.07,52.32,35.4,123.54,85.44,152.45,27.79,16.06,57.73,16.64,89,1.71L892.39,768C872.54,777.49,852.62,782.22,833.11,782.22Z" transform="translate(-91 -102.84)" fill="#fff"/><path d="M821.6,683.15c-60.72-23.4-78.61-67.43-75.11-100.83,3.14-29.93,22.82-52.85,49-57,39.94-6.41,60.92,17.33,66.43,30.77L829.5,569.34a3.52,3.52,0,0,0,.18.41c-1.08-2.25-7.53-13.3-28.68-9.91-10.16,1.63-18.25,12.37-19.7,26.13-3.28,31.28,25.17,53.84,52.88,64.52Z" transform="translate(-91 -102.84)" fill="#fff"/><rect y="493.47" width="599.1" height="35" fill="#fff"/><path d="M321.25,887.47h-.49c-10.53-.15-25.55-4.7-37.3-25.48-6.46-11.44-11.65-27.14-15.85-48-7.33-36.35-10.74-83.83-14-129.74-2.75-38.26-5.35-74.4-10-103.2-5.71-35.59-12.41-44.36-14.26-46.17-5.71,1.08-9.79,13.13-11.77,20.45-5,18.44-7,44.4-8.92,69.5-2.05,26.42-4,51.37-9.19,71.12-9.63,36.53-29.28,43-44.08,42.05a44,44,0,0,1-31.47-16.33c-6.24-7.51-11-17.42-14.59-30.31-5.84-21.06-7.74-47.49-9.56-73-1.65-23-3.34-46.7-7.88-62.51l33.64-9.66c5.55,19.32,7.3,43.78,9.15,69.67,2.45,34.3,6.16,86.14,23,87.26a3,3,0,0,0,.57,0s4.78-2.84,8.86-22.5c3.35-16.15,4.94-36.69,6.62-58.44,2.07-26.71,4.21-54.32,10-75.9,3.56-13.22,8.25-23.27,14.33-30.74,8.35-10.27,19.44-15.69,32.06-15.69,33.83,0,42.81,47.52,46.2,65.41,6,31.86,9,73,12.11,116.53,3.22,44.82,6.55,91.17,13.44,125.34,6.62,32.89,14.46,43.11,18.14,45,2.25-3,7.89-13.76,11.76-49.79,3.34-31,4.54-71.64,5.82-114.61,2.13-71.87,4.54-153.33,17.7-216.87,7.48-36.11,17.66-63.16,31.14-82.72,17.09-24.79,39.37-37.37,66.22-37.37,22.18,0,40.62,9,54.81,26.67,11.3,14.09,19.71,33.56,25.7,59.52,10.36,44.9,11.94,102.74,13.47,158.67,1.32,48,2.57,93.4,9.11,126.76,3.15,16.07,7.32,28,12.39,35.45s9.64,8.45,13.49,8.53c6.51.12,14-1.25,19.92-19.4,5.67-17.2,7.52-42.69,9.3-67.34,2.11-29.1,4.29-59.18,12.68-82.88,14-39.59,41.29-47.36,61.72-46.92l-.77,35h-.86c-15.53,0-22.09,9.45-27.1,23.61-6.81,19.26-8.82,47-10.76,73.74-2,28-3.95,54.45-11,75.76-6.56,19.9-21,43.45-52.59,43.46l-1.28,0c-11.8-.23-28.61-4.56-41.73-23.84-7.85-11.54-13.67-27.37-17.79-48.39-7.11-36.22-8.4-83-9.75-132.54-1.49-54.21-3-110.27-12.6-151.76-13.62-59.06-37.44-59.06-46.4-59.06-10.88,0-44,0-63.09,92.19-12.53,60.54-14.9,140.37-17,210.8-1.46,49.32-2.84,95.91-7.54,130-2.68,19.41-6.33,33.9-11.16,44.3C349.67,872.18,339.79,887.47,321.25,887.47Z" transform="translate(-91 -102.84)" fill="#fff"/><circle cx="362.04" cy="325.19" r="74.95" fill="#fff"/><path d="M588,461.73c-47.57-59.71-95.21-88.47-141.59-85.46-71.12,4.6-119.15,82.79-119.63,83.58l-30-18C299.13,438,354.5,347.29,444,341.36c58.57-3.88,116.26,29.27,171.46,98.56Z" transform="translate(-91 -102.84)" fill="#fff"/><path d="M650.08,374.32C581.5,299.63,511.51,263.87,442.07,268c-54.61,3.27-99.6,31.18-127.73,54-31.23,25.35-49.35,50.37-49.53,50.62l-28.47-20.36c.82-1.15,20.47-28.43,55-56.68,46.2-37.78,97.49-59.4,148.32-62.52,80.58-4.94,160,34.6,236.2,117.53Z" transform="translate(-91 -102.84)" fill="#fff"/><path d="M736,290.84c-96.9-106.63-196.83-158-297-152.61-35.18,1.88-70.62,10.85-105.32,26.65-28.09,12.79-55.79,30.07-82.33,51.35C205.68,252.84,179,289,178.78,289.38l-28.3-20.6c1.17-1.6,29.08-39.67,78-79.12,28.84-23.24,59.07-42.18,89.87-56.29,38.85-17.79,78.69-27.91,118.42-30.08,111.28-6.05,220.65,49.12,325.07,164Z" transform="translate(-91 -102.84)" fill="#fff"/></svg>