<svg id="mic_optional" xmlns="http://www.w3.org/2000/svg" viewBox="0 0 708.34 878.54"><title>VE_mic_icon_v1_speaking</title><path d="M513.64,773.09H510c-90.53,0-164.19-73.65-164.19-164.18V378.42c0-90.54,73.66-164.19,164.19-164.19h3.68c90.54,0,164.19,73.65,164.19,164.19V608.91C677.83,699.44,604.18,773.09,513.64,773.09Zm0-520.48,0,482.1" transform="translate(-155.81 -63.26)"/><rect x="493.19" y="764.37" width="38.38" height="163.7" transform="translate(-162.06 -59.45) rotate(-0.42)"/><rect x="277.92" y="840.16" width="158.51" height="38.38"/><path d="M704.15,527.21V615.1c0,106.06-86.28,192.35-192.35,192.35S319.45,721.16,319.45,615.1V527.21H284.6v90.18c0,125.28,101.92,227.2,227.2,227.2S739,742.67,739,617.39V527.21Z" transform="translate(-155.81 -63.26)"/><line x1="602.19" y1="370.41" x2="708.34" y2="370.41" fill="none" stroke="#000" stroke-miterlimit="10" stroke-width="35"/><line x1="560.75" y1="202.41" x2="643.63" y2="136.1" fill="none" stroke="#000" stroke-miterlimit="10" stroke-width="35"/><line x1="106.15" y1="370.41" y2="370.41" fill="none" stroke="#000" stroke-miterlimit="10" stroke-width="35"/><line x1="147.59" y1="202.41" x2="64.7" y2="136.1" fill="none" stroke="#000" stroke-miterlimit="10" stroke-width="35"/><line x1="355.99" y1="106.15" x2="355.99" fill="none" stroke="#000" stroke-miterlimit="10" stroke-width="35"/></svg>