<svg id="mic_v2_outline" xmlns="http://www.w3.org/2000/svg" viewBox="0 0 363.52 581.86"><title>VE_mic_icon_v2_outline</title><path d="M513.28,734.16h-2.95A131.49,131.49,0,0,1,379,602.81V418.42A131.49,131.49,0,0,1,510.33,287.07h2.95c72.42,0,131.34,58.92,131.34,131.35V602.81C644.62,675.24,585.7,734.16,513.28,734.16Zm-2.95-416.38A100.75,100.75,0,0,0,409.68,418.42V602.81A100.75,100.75,0,0,0,510.33,703.45h2.95A100.75,100.75,0,0,0,613.92,602.81V418.42A100.75,100.75,0,0,0,513.28,317.78Z" transform="translate(-330.04 -287.07)"/><rect x="496.91" y="722.32" width="30.7" height="124.63" transform="translate(-336.13 -283.06) rotate(-0.45)"/><rect x="119.3" y="551.15" width="126.81" height="30.7"/><path d="M665.68,537.26v70.3c0,84.85-69,153.88-153.88,153.88s-153.88-69-153.88-153.88v-70.3H330V609.4c0,100.22,81.54,181.76,181.76,181.76S693.56,709.62,693.56,609.4V537.26Z" transform="translate(-330.04 -287.07)"/></svg>