<svg xmlns="http://www.w3.org/2000/svg" viewBox="0 0 708.34 805.78"><title>VE_mic_icon_v2_speaking</title><g id="mic_v2"><path d="M513.28,734.08h-2.95C437.9,734.08,379,675.15,379,602.73V418.34A131.49,131.49,0,0,1,510.33,287h2.95c72.42,0,131.34,58.92,131.34,131.35V602.73C644.62,675.15,585.7,734.08,513.28,734.08Zm0-416.39,0,385.68" transform="translate(-155.81 -63.26)"/><rect x="496.91" y="727.1" width="30.7" height="130.96" transform="translate(-161.66 -59.45) rotate(-0.42)"/><rect x="293.54" y="775.08" width="126.81" height="30.7"/><path d="M665.68,537.38v70.3c0,84.85-69,153.88-153.88,153.88s-153.88-69-153.88-153.88v-70.3H330v72.14c0,100.22,81.54,181.76,181.76,181.76s181.76-81.54,181.76-181.76V537.38Z" transform="translate(-155.81 -63.26)"/></g><g id="mic_speaking"><line x1="602.19" y1="370.41" x2="708.34" y2="370.41" fill="none" stroke="#000" stroke-miterlimit="10" stroke-width="35"/><line x1="560.75" y1="202.41" x2="643.63" y2="136.1" fill="none" stroke="#000" stroke-miterlimit="10" stroke-width="35"/><line x1="106.15" y1="370.41" y2="370.41" fill="none" stroke="#000" stroke-miterlimit="10" stroke-width="35"/><line x1="147.59" y1="202.41" x2="64.7" y2="136.1" fill="none" stroke="#000" stroke-miterlimit="10" stroke-width="35"/><line x1="355.99" y1="106.15" x2="355.99" fill="none" stroke="#000" stroke-miterlimit="10" stroke-width="35"/></g></svg>