<svg id="mic_v1" xmlns="http://www.w3.org/2000/svg" viewBox="0 0 454.4 727.57"><title>VE_mic_icon_v1</title><path d="M513.64,773.09H510c-90.53,0-164.19-73.65-164.19-164.18V378.42c0-90.54,73.66-164.19,164.19-164.19h3.68c90.54,0,164.19,73.65,164.19,164.19V608.91C677.83,699.44,604.18,773.09,513.64,773.09Zm0-520.48,0,482.1" transform="translate(-284.6 -214.23)"/><rect x="493.19" y="764.37" width="38.38" height="163.7" transform="translate(-290.85 -210.42) rotate(-0.42)"/><rect x="149.13" y="689.19" width="158.51" height="38.38"/><path d="M704.15,527.21V615.1c0,106.06-86.28,192.35-192.35,192.35S319.45,721.16,319.45,615.1V527.21H284.6v90.18c0,125.28,101.92,227.2,227.2,227.2S739,742.67,739,617.39V527.21Z" transform="translate(-284.6 -214.23)"/></svg>