<svg id="mic_v2" xmlns="http://www.w3.org/2000/svg" viewBox="0 0 363.52 582.06"><title>VE_mic_icon_v2</title><path d="M513.28,734.08h-2.95C437.9,734.08,379,675.15,379,602.73V418.34A131.49,131.49,0,0,1,510.33,287h2.95c72.42,0,131.34,58.92,131.34,131.35V602.73C644.62,675.15,585.7,734.08,513.28,734.08Zm0-416.39,0,385.68" transform="translate(-330.04 -286.99)"/><rect x="496.91" y="727.1" width="30.7" height="130.96" transform="translate(-335.9 -283.18) rotate(-0.42)"/><rect x="119.3" y="551.35" width="126.81" height="30.7"/><path d="M665.68,537.38v70.3c0,84.85-69,153.88-153.88,153.88s-153.88-69-153.88-153.88v-70.3H330v72.14c0,100.22,81.54,181.76,181.76,181.76s181.76-81.54,181.76-181.76V537.38Z" transform="translate(-330.04 -286.99)"/></svg>